<mxfile host="app.diagrams.net" agent="Mozilla/5.0 (Windows NT 10.0; Win64; x64) AppleWebKit/537.36 (KHTML, like Gecko) Chrome/136.0.0.0 Safari/537.36" version="27.0.2">
  <diagram name="PÃ¡gina-1" id="OLn8vRMohXvubUvZaAsE">
    <mxGraphModel dx="1042" dy="623" grid="1" gridSize="10" guides="1" tooltips="1" connect="1" arrows="1" fold="1" page="1" pageScale="1" pageWidth="827" pageHeight="1169" math="0" shadow="0">
      <root>
        <mxCell id="0" />
        <mxCell id="1" parent="0" />
        <mxCell id="7Fdn9_1kDD7aw7KvLnDt-8" value="" style="edgeStyle=orthogonalEdgeStyle;rounded=0;orthogonalLoop=1;jettySize=auto;html=1;exitX=0.5;exitY=0;exitDx=0;exitDy=0;" parent="1" target="7Fdn9_1kDD7aw7KvLnDt-6" edge="1">
          <mxGeometry relative="1" as="geometry">
            <mxPoint x="24" y="399.94" as="sourcePoint" />
            <mxPoint x="84.11764705882365" y="159.99882352941182" as="targetPoint" />
            <Array as="points">
              <mxPoint x="54" y="400" />
              <mxPoint x="54" y="160" />
            </Array>
          </mxGeometry>
        </mxCell>
        <mxCell id="ZJ7O9cxaeD2Jd0CNXLAg-9" value="" style="edgeStyle=orthogonalEdgeStyle;rounded=0;orthogonalLoop=1;jettySize=auto;html=1;entryX=0;entryY=0.5;entryDx=0;entryDy=0;" parent="1" target="ZJ7O9cxaeD2Jd0CNXLAg-50" edge="1">
          <mxGeometry relative="1" as="geometry">
            <mxPoint x="84.00021626344346" y="760.0588235294117" as="targetPoint" />
            <Array as="points">
              <mxPoint x="54" y="820" />
            </Array>
            <mxPoint x="54" y="440" as="sourcePoint" />
          </mxGeometry>
        </mxCell>
        <mxCell id="ZJ7O9cxaeD2Jd0CNXLAg-16" style="edgeStyle=orthogonalEdgeStyle;rounded=0;orthogonalLoop=1;jettySize=auto;html=1;entryX=0;entryY=0.5;entryDx=0;entryDy=0;" parent="1" target="ZJ7O9cxaeD2Jd0CNXLAg-51" edge="1">
          <mxGeometry relative="1" as="geometry">
            <mxPoint x="44" y="439.94" as="sourcePoint" />
            <mxPoint x="84.00021626344346" y="840.0588235294117" as="targetPoint" />
            <Array as="points">
              <mxPoint x="54" y="440" />
              <mxPoint x="54" y="900" />
            </Array>
          </mxGeometry>
        </mxCell>
        <mxCell id="ZJ7O9cxaeD2Jd0CNXLAg-17" style="edgeStyle=orthogonalEdgeStyle;rounded=0;orthogonalLoop=1;jettySize=auto;html=1;entryX=0;entryY=0.5;entryDx=0;entryDy=0;" parent="1" target="ZJ7O9cxaeD2Jd0CNXLAg-52" edge="1">
          <mxGeometry relative="1" as="geometry">
            <mxPoint x="84.0000000000025" y="925" as="targetPoint" />
            <Array as="points">
              <mxPoint x="54" y="980" />
            </Array>
            <mxPoint x="54" y="440" as="sourcePoint" />
          </mxGeometry>
        </mxCell>
        <mxCell id="ZJ7O9cxaeD2Jd0CNXLAg-19" style="edgeStyle=orthogonalEdgeStyle;rounded=0;orthogonalLoop=1;jettySize=auto;html=1;entryX=0;entryY=0.5;entryDx=0;entryDy=0;" parent="1" target="ZJ7O9cxaeD2Jd0CNXLAg-53" edge="1">
          <mxGeometry relative="1" as="geometry">
            <mxPoint x="52.83" y="460" as="sourcePoint" />
            <mxPoint x="104" y="1020" as="targetPoint" />
            <Array as="points">
              <mxPoint x="53" y="1060" />
            </Array>
          </mxGeometry>
        </mxCell>
        <mxCell id="ZJ7O9cxaeD2Jd0CNXLAg-41" style="edgeStyle=orthogonalEdgeStyle;rounded=0;orthogonalLoop=1;jettySize=auto;html=1;entryX=0.464;entryY=0.148;entryDx=0;entryDy=0;entryPerimeter=0;" parent="1" target="ZJ7O9cxaeD2Jd0CNXLAg-40" edge="1">
          <mxGeometry relative="1" as="geometry">
            <mxPoint x="154" y="450" as="targetPoint" />
            <mxPoint x="104" y="420" as="sourcePoint" />
          </mxGeometry>
        </mxCell>
        <mxCell id="qr7E9T7kQJSVh2GNNmqL-2" style="edgeStyle=orthogonalEdgeStyle;rounded=0;orthogonalLoop=1;jettySize=auto;html=1;entryX=0;entryY=0.5;entryDx=0;entryDy=0;" parent="1" target="qr7E9T7kQJSVh2GNNmqL-1" edge="1">
          <mxGeometry relative="1" as="geometry">
            <mxPoint x="104" y="420" as="sourcePoint" />
          </mxGeometry>
        </mxCell>
        <mxCell id="7Fdn9_1kDD7aw7KvLnDt-1" value="Cliente" style="rounded=1;arcSize=10;whiteSpace=wrap;html=1;align=center;" parent="1" vertex="1">
          <mxGeometry x="10" y="320" width="100" height="40" as="geometry" />
        </mxCell>
        <mxCell id="ZJ7O9cxaeD2Jd0CNXLAg-109" style="edgeStyle=orthogonalEdgeStyle;rounded=0;orthogonalLoop=1;jettySize=auto;html=1;entryX=0;entryY=0.5;entryDx=0;entryDy=0;" parent="1" source="7Fdn9_1kDD7aw7KvLnDt-2" target="ZJ7O9cxaeD2Jd0CNXLAg-104" edge="1">
          <mxGeometry relative="1" as="geometry" />
        </mxCell>
        <mxCell id="ZJ7O9cxaeD2Jd0CNXLAg-110" style="edgeStyle=orthogonalEdgeStyle;rounded=0;orthogonalLoop=1;jettySize=auto;html=1;entryX=0;entryY=0.5;entryDx=0;entryDy=0;" parent="1" source="7Fdn9_1kDD7aw7KvLnDt-2" target="ZJ7O9cxaeD2Jd0CNXLAg-105" edge="1">
          <mxGeometry relative="1" as="geometry" />
        </mxCell>
        <mxCell id="ZJ7O9cxaeD2Jd0CNXLAg-111" style="edgeStyle=orthogonalEdgeStyle;rounded=0;orthogonalLoop=1;jettySize=auto;html=1;entryX=0;entryY=0.5;entryDx=0;entryDy=0;" parent="1" source="7Fdn9_1kDD7aw7KvLnDt-2" target="ZJ7O9cxaeD2Jd0CNXLAg-106" edge="1">
          <mxGeometry relative="1" as="geometry" />
        </mxCell>
        <mxCell id="qr7E9T7kQJSVh2GNNmqL-23" style="edgeStyle=orthogonalEdgeStyle;rounded=0;orthogonalLoop=1;jettySize=auto;html=1;" parent="1" source="7Fdn9_1kDD7aw7KvLnDt-2" target="qr7E9T7kQJSVh2GNNmqL-3" edge="1">
          <mxGeometry relative="1" as="geometry">
            <mxPoint x="460" y="800" as="targetPoint" />
          </mxGeometry>
        </mxCell>
        <mxCell id="7Fdn9_1kDD7aw7KvLnDt-2" value="Editorial" style="rounded=1;arcSize=10;whiteSpace=wrap;html=1;align=center;" parent="1" vertex="1">
          <mxGeometry x="324" y="780" width="100" height="40" as="geometry" />
        </mxCell>
        <mxCell id="7Fdn9_1kDD7aw7KvLnDt-16" value="" style="edgeStyle=orthogonalEdgeStyle;rounded=0;orthogonalLoop=1;jettySize=auto;html=1;" parent="1" source="7Fdn9_1kDD7aw7KvLnDt-3" edge="1">
          <mxGeometry relative="1" as="geometry">
            <mxPoint x="354" y="230" as="targetPoint" />
            <Array as="points">
              <mxPoint x="384" y="230" />
            </Array>
          </mxGeometry>
        </mxCell>
        <mxCell id="ZJ7O9cxaeD2Jd0CNXLAg-74" style="edgeStyle=orthogonalEdgeStyle;rounded=0;orthogonalLoop=1;jettySize=auto;html=1;entryX=0;entryY=0.5;entryDx=0;entryDy=0;" parent="1" source="7Fdn9_1kDD7aw7KvLnDt-3" target="ZJ7O9cxaeD2Jd0CNXLAg-72" edge="1">
          <mxGeometry relative="1" as="geometry" />
        </mxCell>
        <mxCell id="qr7E9T7kQJSVh2GNNmqL-8" style="edgeStyle=orthogonalEdgeStyle;rounded=0;orthogonalLoop=1;jettySize=auto;html=1;entryX=0;entryY=0.5;entryDx=0;entryDy=0;" parent="1" source="7Fdn9_1kDD7aw7KvLnDt-3" target="qr7E9T7kQJSVh2GNNmqL-5" edge="1">
          <mxGeometry relative="1" as="geometry" />
        </mxCell>
        <mxCell id="qr7E9T7kQJSVh2GNNmqL-13" style="edgeStyle=orthogonalEdgeStyle;rounded=0;orthogonalLoop=1;jettySize=auto;html=1;entryX=0;entryY=0.5;entryDx=0;entryDy=0;" parent="1" source="7Fdn9_1kDD7aw7KvLnDt-3" target="ZJ7O9cxaeD2Jd0CNXLAg-71" edge="1">
          <mxGeometry relative="1" as="geometry" />
        </mxCell>
        <mxCell id="qr7E9T7kQJSVh2GNNmqL-18" style="edgeStyle=orthogonalEdgeStyle;rounded=0;orthogonalLoop=1;jettySize=auto;html=1;entryX=0;entryY=0.5;entryDx=0;entryDy=0;" parent="1" source="7Fdn9_1kDD7aw7KvLnDt-3" target="qr7E9T7kQJSVh2GNNmqL-17" edge="1">
          <mxGeometry relative="1" as="geometry" />
        </mxCell>
        <mxCell id="7Fdn9_1kDD7aw7KvLnDt-3" value="Pedido" style="shape=ext;margin=3;double=1;whiteSpace=wrap;html=1;align=center;" parent="1" vertex="1">
          <mxGeometry x="334" y="110" width="100" height="40" as="geometry" />
        </mxCell>
        <mxCell id="7Fdn9_1kDD7aw7KvLnDt-20" value="" style="edgeStyle=orthogonalEdgeStyle;rounded=0;orthogonalLoop=1;jettySize=auto;html=1;" parent="1" source="7Fdn9_1kDD7aw7KvLnDt-4" target="7Fdn9_1kDD7aw7KvLnDt-19" edge="1">
          <mxGeometry relative="1" as="geometry" />
        </mxCell>
        <mxCell id="ZJ7O9cxaeD2Jd0CNXLAg-93" style="edgeStyle=orthogonalEdgeStyle;rounded=0;orthogonalLoop=1;jettySize=auto;html=1;entryX=0;entryY=0.5;entryDx=0;entryDy=0;" parent="1" source="7Fdn9_1kDD7aw7KvLnDt-4" target="ZJ7O9cxaeD2Jd0CNXLAg-92" edge="1">
          <mxGeometry relative="1" as="geometry" />
        </mxCell>
        <mxCell id="ZJ7O9cxaeD2Jd0CNXLAg-95" style="edgeStyle=orthogonalEdgeStyle;rounded=0;orthogonalLoop=1;jettySize=auto;html=1;entryX=0;entryY=0.5;entryDx=0;entryDy=0;" parent="1" source="7Fdn9_1kDD7aw7KvLnDt-4" target="ZJ7O9cxaeD2Jd0CNXLAg-94" edge="1">
          <mxGeometry relative="1" as="geometry" />
        </mxCell>
        <mxCell id="ZJ7O9cxaeD2Jd0CNXLAg-97" style="edgeStyle=orthogonalEdgeStyle;rounded=0;orthogonalLoop=1;jettySize=auto;html=1;entryX=0;entryY=0.5;entryDx=0;entryDy=0;" parent="1" source="7Fdn9_1kDD7aw7KvLnDt-4" target="ZJ7O9cxaeD2Jd0CNXLAg-96" edge="1">
          <mxGeometry relative="1" as="geometry" />
        </mxCell>
        <mxCell id="ZJ7O9cxaeD2Jd0CNXLAg-101" style="edgeStyle=orthogonalEdgeStyle;rounded=0;orthogonalLoop=1;jettySize=auto;html=1;entryX=0;entryY=0.5;entryDx=0;entryDy=0;" parent="1" source="7Fdn9_1kDD7aw7KvLnDt-4" target="ZJ7O9cxaeD2Jd0CNXLAg-99" edge="1">
          <mxGeometry relative="1" as="geometry" />
        </mxCell>
        <mxCell id="ZJ7O9cxaeD2Jd0CNXLAg-102" style="edgeStyle=orthogonalEdgeStyle;rounded=0;orthogonalLoop=1;jettySize=auto;html=1;entryX=0;entryY=0.5;entryDx=0;entryDy=0;" parent="1" source="7Fdn9_1kDD7aw7KvLnDt-4" target="ZJ7O9cxaeD2Jd0CNXLAg-100" edge="1">
          <mxGeometry relative="1" as="geometry" />
        </mxCell>
        <mxCell id="ZJ7O9cxaeD2Jd0CNXLAg-103" style="edgeStyle=orthogonalEdgeStyle;rounded=0;orthogonalLoop=1;jettySize=auto;html=1;entryX=0;entryY=0.5;entryDx=0;entryDy=0;" parent="1" source="7Fdn9_1kDD7aw7KvLnDt-4" target="ZJ7O9cxaeD2Jd0CNXLAg-98" edge="1">
          <mxGeometry relative="1" as="geometry" />
        </mxCell>
        <mxCell id="qr7E9T7kQJSVh2GNNmqL-24" style="edgeStyle=orthogonalEdgeStyle;rounded=0;orthogonalLoop=1;jettySize=auto;html=1;entryX=0;entryY=0.5;entryDx=0;entryDy=0;" parent="1" source="7Fdn9_1kDD7aw7KvLnDt-4" target="ZJ7O9cxaeD2Jd0CNXLAg-90" edge="1">
          <mxGeometry relative="1" as="geometry" />
        </mxCell>
        <mxCell id="qr7E9T7kQJSVh2GNNmqL-25" style="edgeStyle=orthogonalEdgeStyle;rounded=0;orthogonalLoop=1;jettySize=auto;html=1;entryX=0;entryY=0.5;entryDx=0;entryDy=0;" parent="1" source="7Fdn9_1kDD7aw7KvLnDt-4" target="7Fdn9_1kDD7aw7KvLnDt-24" edge="1">
          <mxGeometry relative="1" as="geometry" />
        </mxCell>
        <mxCell id="qr7E9T7kQJSVh2GNNmqL-26" style="edgeStyle=orthogonalEdgeStyle;rounded=0;orthogonalLoop=1;jettySize=auto;html=1;entryX=0;entryY=0.5;entryDx=0;entryDy=0;" parent="1" source="7Fdn9_1kDD7aw7KvLnDt-4" target="qr7E9T7kQJSVh2GNNmqL-9" edge="1">
          <mxGeometry relative="1" as="geometry" />
        </mxCell>
        <mxCell id="qr7E9T7kQJSVh2GNNmqL-28" style="edgeStyle=orthogonalEdgeStyle;rounded=0;orthogonalLoop=1;jettySize=auto;html=1;entryX=0;entryY=0.5;entryDx=0;entryDy=0;" parent="1" source="7Fdn9_1kDD7aw7KvLnDt-4" target="qr7E9T7kQJSVh2GNNmqL-27" edge="1">
          <mxGeometry relative="1" as="geometry" />
        </mxCell>
        <mxCell id="7Fdn9_1kDD7aw7KvLnDt-4" value="Libro" style="shape=ext;margin=3;double=1;whiteSpace=wrap;html=1;align=center;" parent="1" vertex="1">
          <mxGeometry x="334" y="360" width="100" height="40" as="geometry" />
        </mxCell>
        <mxCell id="qr7E9T7kQJSVh2GNNmqL-32" style="edgeStyle=orthogonalEdgeStyle;rounded=0;orthogonalLoop=1;jettySize=auto;html=1;entryX=1;entryY=0.5;entryDx=0;entryDy=0;" parent="1" source="7Fdn9_1kDD7aw7KvLnDt-5" target="ZJ7O9cxaeD2Jd0CNXLAg-75" edge="1">
          <mxGeometry relative="1" as="geometry">
            <Array as="points">
              <mxPoint x="790" y="425" />
            </Array>
          </mxGeometry>
        </mxCell>
        <mxCell id="qr7E9T7kQJSVh2GNNmqL-33" style="edgeStyle=orthogonalEdgeStyle;rounded=0;orthogonalLoop=1;jettySize=auto;html=1;entryX=1;entryY=0.5;entryDx=0;entryDy=0;" parent="1" source="7Fdn9_1kDD7aw7KvLnDt-5" target="qr7E9T7kQJSVh2GNNmqL-29" edge="1">
          <mxGeometry relative="1" as="geometry">
            <Array as="points">
              <mxPoint x="790" y="480" />
            </Array>
          </mxGeometry>
        </mxCell>
        <mxCell id="qr7E9T7kQJSVh2GNNmqL-34" style="edgeStyle=orthogonalEdgeStyle;rounded=0;orthogonalLoop=1;jettySize=auto;html=1;entryX=1;entryY=0.5;entryDx=0;entryDy=0;" parent="1" source="7Fdn9_1kDD7aw7KvLnDt-5" target="qr7E9T7kQJSVh2GNNmqL-11" edge="1">
          <mxGeometry relative="1" as="geometry">
            <Array as="points">
              <mxPoint x="790" y="530" />
            </Array>
          </mxGeometry>
        </mxCell>
        <mxCell id="7Fdn9_1kDD7aw7KvLnDt-5" value="Inventario" style="shape=ext;margin=3;double=1;whiteSpace=wrap;html=1;align=center;" parent="1" vertex="1">
          <mxGeometry x="700" y="330" width="100" height="40" as="geometry" />
        </mxCell>
        <mxCell id="7Fdn9_1kDD7aw7KvLnDt-9" value="" style="edgeStyle=orthogonalEdgeStyle;rounded=0;orthogonalLoop=1;jettySize=auto;html=1;" parent="1" source="7Fdn9_1kDD7aw7KvLnDt-6" target="7Fdn9_1kDD7aw7KvLnDt-3" edge="1">
          <mxGeometry relative="1" as="geometry" />
        </mxCell>
        <mxCell id="7Fdn9_1kDD7aw7KvLnDt-6" value="Compra" style="shape=rhombus;perimeter=rhombusPerimeter;whiteSpace=wrap;html=1;align=center;" parent="1" vertex="1">
          <mxGeometry x="134" y="130" width="120" height="60" as="geometry" />
        </mxCell>
        <mxCell id="7Fdn9_1kDD7aw7KvLnDt-10" value="(1,1)" style="text;html=1;align=center;verticalAlign=middle;whiteSpace=wrap;rounded=0;" parent="1" vertex="1">
          <mxGeometry x="54" y="370" width="60" height="30" as="geometry" />
        </mxCell>
        <mxCell id="7Fdn9_1kDD7aw7KvLnDt-11" value="(0,N)" style="text;html=1;align=center;verticalAlign=middle;whiteSpace=wrap;rounded=0;" parent="1" vertex="1">
          <mxGeometry x="244" y="115" width="60" height="30" as="geometry" />
        </mxCell>
        <mxCell id="7Fdn9_1kDD7aw7KvLnDt-17" value="" style="edgeStyle=orthogonalEdgeStyle;rounded=0;orthogonalLoop=1;jettySize=auto;html=1;" parent="1" target="7Fdn9_1kDD7aw7KvLnDt-4" edge="1">
          <mxGeometry relative="1" as="geometry">
            <mxPoint x="384" y="290" as="sourcePoint" />
          </mxGeometry>
        </mxCell>
        <mxCell id="7Fdn9_1kDD7aw7KvLnDt-14" value="(1,1)" style="text;html=1;align=center;verticalAlign=middle;whiteSpace=wrap;rounded=0;" parent="1" vertex="1">
          <mxGeometry x="384" y="150" width="60" height="30" as="geometry" />
        </mxCell>
        <mxCell id="7Fdn9_1kDD7aw7KvLnDt-18" value="(1,N)" style="text;html=1;align=center;verticalAlign=middle;whiteSpace=wrap;rounded=0;" parent="1" vertex="1">
          <mxGeometry x="384" y="330" width="60" height="30" as="geometry" />
        </mxCell>
        <mxCell id="7Fdn9_1kDD7aw7KvLnDt-21" value="" style="edgeStyle=orthogonalEdgeStyle;rounded=0;orthogonalLoop=1;jettySize=auto;html=1;" parent="1" source="7Fdn9_1kDD7aw7KvLnDt-19" target="7Fdn9_1kDD7aw7KvLnDt-2" edge="1">
          <mxGeometry relative="1" as="geometry" />
        </mxCell>
        <mxCell id="7Fdn9_1kDD7aw7KvLnDt-19" value="Pertenece" style="shape=rhombus;perimeter=rhombusPerimeter;whiteSpace=wrap;html=1;align=center;" parent="1" vertex="1">
          <mxGeometry x="324" y="470" width="120" height="60" as="geometry" />
        </mxCell>
        <mxCell id="7Fdn9_1kDD7aw7KvLnDt-22" value="(1,N)" style="text;html=1;align=center;verticalAlign=middle;whiteSpace=wrap;rounded=0;" parent="1" vertex="1">
          <mxGeometry x="384" y="445" width="60" height="30" as="geometry" />
        </mxCell>
        <mxCell id="7Fdn9_1kDD7aw7KvLnDt-23" value="(1,1)" style="text;html=1;align=center;verticalAlign=middle;whiteSpace=wrap;rounded=0;" parent="1" vertex="1">
          <mxGeometry x="384" y="570" width="60" height="30" as="geometry" />
        </mxCell>
        <mxCell id="ZJ7O9cxaeD2Jd0CNXLAg-77" style="edgeStyle=orthogonalEdgeStyle;rounded=0;orthogonalLoop=1;jettySize=auto;html=1;" parent="1" source="7Fdn9_1kDD7aw7KvLnDt-24" target="7Fdn9_1kDD7aw7KvLnDt-5" edge="1">
          <mxGeometry relative="1" as="geometry">
            <mxPoint x="700" y="350" as="targetPoint" />
          </mxGeometry>
        </mxCell>
        <mxCell id="7Fdn9_1kDD7aw7KvLnDt-24" value="Existe" style="shape=rhombus;perimeter=rhombusPerimeter;whiteSpace=wrap;html=1;align=center;" parent="1" vertex="1">
          <mxGeometry x="530" y="320" width="120" height="60" as="geometry" />
        </mxCell>
        <mxCell id="7Fdn9_1kDD7aw7KvLnDt-27" value="(1,N)" style="text;html=1;align=center;verticalAlign=middle;whiteSpace=wrap;rounded=0;" parent="1" vertex="1">
          <mxGeometry x="480" y="320" width="60" height="30" as="geometry" />
        </mxCell>
        <mxCell id="7Fdn9_1kDD7aw7KvLnDt-28" value="(0,1)" style="text;html=1;align=center;verticalAlign=middle;whiteSpace=wrap;rounded=0;" parent="1" vertex="1">
          <mxGeometry x="640" y="320" width="60" height="30" as="geometry" />
        </mxCell>
        <mxCell id="qr7E9T7kQJSVh2GNNmqL-22" style="edgeStyle=orthogonalEdgeStyle;rounded=0;orthogonalLoop=1;jettySize=auto;html=1;" parent="1" source="ZJ7O9cxaeD2Jd0CNXLAg-1" target="qr7E9T7kQJSVh2GNNmqL-19" edge="1">
          <mxGeometry relative="1" as="geometry">
            <Array as="points">
              <mxPoint x="640" y="250" />
              <mxPoint x="640" y="293" />
            </Array>
          </mxGeometry>
        </mxCell>
        <mxCell id="qr7E9T7kQJSVh2GNNmqL-37" style="edgeStyle=orthogonalEdgeStyle;rounded=0;orthogonalLoop=1;jettySize=auto;html=1;entryX=0;entryY=0.5;entryDx=0;entryDy=0;" parent="1" source="ZJ7O9cxaeD2Jd0CNXLAg-1" target="qr7E9T7kQJSVh2GNNmqL-35" edge="1">
          <mxGeometry relative="1" as="geometry">
            <Array as="points">
              <mxPoint x="640" y="250" />
              <mxPoint x="640" y="198" />
            </Array>
          </mxGeometry>
        </mxCell>
        <mxCell id="qr7E9T7kQJSVh2GNNmqL-38" style="edgeStyle=orthogonalEdgeStyle;rounded=0;orthogonalLoop=1;jettySize=auto;html=1;entryX=0;entryY=0.5;entryDx=0;entryDy=0;" parent="1" source="ZJ7O9cxaeD2Jd0CNXLAg-1" target="qr7E9T7kQJSVh2GNNmqL-36" edge="1">
          <mxGeometry relative="1" as="geometry">
            <Array as="points">
              <mxPoint x="640" y="250" />
              <mxPoint x="640" y="148" />
            </Array>
          </mxGeometry>
        </mxCell>
        <mxCell id="qr7E9T7kQJSVh2GNNmqL-39" style="edgeStyle=orthogonalEdgeStyle;rounded=0;orthogonalLoop=1;jettySize=auto;html=1;entryX=0;entryY=0.5;entryDx=0;entryDy=0;" parent="1" source="ZJ7O9cxaeD2Jd0CNXLAg-1" target="qr7E9T7kQJSVh2GNNmqL-20" edge="1">
          <mxGeometry relative="1" as="geometry">
            <Array as="points">
              <mxPoint x="710" y="250" />
            </Array>
          </mxGeometry>
        </mxCell>
        <mxCell id="ZJ7O9cxaeD2Jd0CNXLAg-1" value="Contiene" style="shape=associativeEntity;whiteSpace=wrap;html=1;align=center;" parent="1" vertex="1">
          <mxGeometry x="314" y="230" width="140" height="60" as="geometry" />
        </mxCell>
        <mxCell id="ZJ7O9cxaeD2Jd0CNXLAg-2" value="Items" style="text;html=1;align=center;verticalAlign=middle;whiteSpace=wrap;rounded=0;" parent="1" vertex="1">
          <mxGeometry x="314" y="210" width="50" height="20" as="geometry" />
        </mxCell>
        <mxCell id="ZJ7O9cxaeD2Jd0CNXLAg-4" value="(1,N)" style="text;html=1;align=center;verticalAlign=middle;whiteSpace=wrap;rounded=0;" parent="1" vertex="1">
          <mxGeometry x="394" y="200" width="60" height="30" as="geometry" />
        </mxCell>
        <mxCell id="ZJ7O9cxaeD2Jd0CNXLAg-5" value="(1,N)" style="text;html=1;align=center;verticalAlign=middle;whiteSpace=wrap;rounded=0;" parent="1" vertex="1">
          <mxGeometry x="384" y="290" width="60" height="30" as="geometry" />
        </mxCell>
        <mxCell id="ZJ7O9cxaeD2Jd0CNXLAg-45" style="edgeStyle=orthogonalEdgeStyle;rounded=0;orthogonalLoop=1;jettySize=auto;html=1;entryX=0.5;entryY=0;entryDx=0;entryDy=0;" parent="1" source="ZJ7O9cxaeD2Jd0CNXLAg-40" target="ZJ7O9cxaeD2Jd0CNXLAg-43" edge="1">
          <mxGeometry relative="1" as="geometry" />
        </mxCell>
        <mxCell id="ZJ7O9cxaeD2Jd0CNXLAg-46" style="edgeStyle=orthogonalEdgeStyle;rounded=0;orthogonalLoop=1;jettySize=auto;html=1;" parent="1" source="ZJ7O9cxaeD2Jd0CNXLAg-40" target="ZJ7O9cxaeD2Jd0CNXLAg-44" edge="1">
          <mxGeometry relative="1" as="geometry" />
        </mxCell>
        <mxCell id="ZJ7O9cxaeD2Jd0CNXLAg-40" value="ID" style="strokeWidth=2;html=1;shape=mxgraph.flowchart.extract_or_measurement;whiteSpace=wrap;" parent="1" vertex="1">
          <mxGeometry x="139" y="470" width="95" height="60" as="geometry" />
        </mxCell>
        <mxCell id="ZJ7O9cxaeD2Jd0CNXLAg-59" style="edgeStyle=orthogonalEdgeStyle;rounded=0;orthogonalLoop=1;jettySize=auto;html=1;" parent="1" source="ZJ7O9cxaeD2Jd0CNXLAg-43" target="ZJ7O9cxaeD2Jd0CNXLAg-54" edge="1">
          <mxGeometry relative="1" as="geometry">
            <Array as="points">
              <mxPoint x="94" y="670" />
              <mxPoint x="94" y="670" />
            </Array>
          </mxGeometry>
        </mxCell>
        <mxCell id="ZJ7O9cxaeD2Jd0CNXLAg-60" style="edgeStyle=orthogonalEdgeStyle;rounded=0;orthogonalLoop=1;jettySize=auto;html=1;entryX=0;entryY=0.5;entryDx=0;entryDy=0;" parent="1" source="ZJ7O9cxaeD2Jd0CNXLAg-43" target="ZJ7O9cxaeD2Jd0CNXLAg-55" edge="1">
          <mxGeometry relative="1" as="geometry">
            <Array as="points">
              <mxPoint x="94" y="740" />
            </Array>
          </mxGeometry>
        </mxCell>
        <mxCell id="ZJ7O9cxaeD2Jd0CNXLAg-43" value="PN" style="rounded=1;arcSize=10;whiteSpace=wrap;html=1;align=center;" parent="1" vertex="1">
          <mxGeometry x="74" y="580" width="100" height="40" as="geometry" />
        </mxCell>
        <mxCell id="ZJ7O9cxaeD2Jd0CNXLAg-61" style="edgeStyle=orthogonalEdgeStyle;rounded=0;orthogonalLoop=1;jettySize=auto;html=1;entryX=0;entryY=0.5;entryDx=0;entryDy=0;" parent="1" source="ZJ7O9cxaeD2Jd0CNXLAg-44" target="ZJ7O9cxaeD2Jd0CNXLAg-56" edge="1">
          <mxGeometry relative="1" as="geometry">
            <Array as="points">
              <mxPoint x="234" y="680" />
            </Array>
          </mxGeometry>
        </mxCell>
        <mxCell id="ZJ7O9cxaeD2Jd0CNXLAg-62" style="edgeStyle=orthogonalEdgeStyle;rounded=0;orthogonalLoop=1;jettySize=auto;html=1;" parent="1" source="ZJ7O9cxaeD2Jd0CNXLAg-44" target="ZJ7O9cxaeD2Jd0CNXLAg-57" edge="1">
          <mxGeometry relative="1" as="geometry">
            <Array as="points">
              <mxPoint x="234" y="730" />
              <mxPoint x="234" y="730" />
            </Array>
          </mxGeometry>
        </mxCell>
        <mxCell id="ZJ7O9cxaeD2Jd0CNXLAg-44" value="PJ" style="rounded=1;arcSize=10;whiteSpace=wrap;html=1;align=center;" parent="1" vertex="1">
          <mxGeometry x="194" y="580" width="100" height="40" as="geometry" />
        </mxCell>
        <mxCell id="ZJ7O9cxaeD2Jd0CNXLAg-50" value="Nombre" style="ellipse;whiteSpace=wrap;html=1;align=center;" parent="1" vertex="1">
          <mxGeometry x="94" y="800" width="100" height="40" as="geometry" />
        </mxCell>
        <mxCell id="ZJ7O9cxaeD2Jd0CNXLAg-64" style="edgeStyle=orthogonalEdgeStyle;rounded=0;orthogonalLoop=1;jettySize=auto;html=1;entryX=0;entryY=0.5;entryDx=0;entryDy=0;" parent="1" source="ZJ7O9cxaeD2Jd0CNXLAg-51" target="ZJ7O9cxaeD2Jd0CNXLAg-63" edge="1">
          <mxGeometry relative="1" as="geometry" />
        </mxCell>
        <mxCell id="ZJ7O9cxaeD2Jd0CNXLAg-66" style="edgeStyle=orthogonalEdgeStyle;rounded=0;orthogonalLoop=1;jettySize=auto;html=1;entryX=0;entryY=0.5;entryDx=0;entryDy=0;" parent="1" source="ZJ7O9cxaeD2Jd0CNXLAg-51" target="ZJ7O9cxaeD2Jd0CNXLAg-65" edge="1">
          <mxGeometry relative="1" as="geometry" />
        </mxCell>
        <mxCell id="ZJ7O9cxaeD2Jd0CNXLAg-68" style="edgeStyle=orthogonalEdgeStyle;rounded=0;orthogonalLoop=1;jettySize=auto;html=1;entryX=0;entryY=0.5;entryDx=0;entryDy=0;" parent="1" source="ZJ7O9cxaeD2Jd0CNXLAg-51" target="ZJ7O9cxaeD2Jd0CNXLAg-67" edge="1">
          <mxGeometry relative="1" as="geometry" />
        </mxCell>
        <mxCell id="ZJ7O9cxaeD2Jd0CNXLAg-70" style="edgeStyle=orthogonalEdgeStyle;rounded=0;orthogonalLoop=1;jettySize=auto;html=1;entryX=0;entryY=0.5;entryDx=0;entryDy=0;" parent="1" source="ZJ7O9cxaeD2Jd0CNXLAg-51" target="ZJ7O9cxaeD2Jd0CNXLAg-69" edge="1">
          <mxGeometry relative="1" as="geometry" />
        </mxCell>
        <mxCell id="ZJ7O9cxaeD2Jd0CNXLAg-51" value="DirecciÃ³n" style="ellipse;whiteSpace=wrap;html=1;align=center;" parent="1" vertex="1">
          <mxGeometry x="94" y="880" width="100" height="40" as="geometry" />
        </mxCell>
        <mxCell id="ZJ7O9cxaeD2Jd0CNXLAg-52" value="TelÃ©fono" style="ellipse;whiteSpace=wrap;html=1;align=center;" parent="1" vertex="1">
          <mxGeometry x="94" y="960" width="100" height="40" as="geometry" />
        </mxCell>
        <mxCell id="ZJ7O9cxaeD2Jd0CNXLAg-53" value="E-mail" style="ellipse;whiteSpace=wrap;html=1;align=center;" parent="1" vertex="1">
          <mxGeometry x="94" y="1040" width="100" height="40" as="geometry" />
        </mxCell>
        <mxCell id="ZJ7O9cxaeD2Jd0CNXLAg-54" value="DNI" style="ellipse;whiteSpace=wrap;html=1;align=center;" parent="1" vertex="1">
          <mxGeometry x="114" y="660" width="100" height="40" as="geometry" />
        </mxCell>
        <mxCell id="ZJ7O9cxaeD2Jd0CNXLAg-55" value="RUT" style="ellipse;whiteSpace=wrap;html=1;align=center;" parent="1" vertex="1">
          <mxGeometry x="114" y="720" width="100" height="40" as="geometry" />
        </mxCell>
        <mxCell id="ZJ7O9cxaeD2Jd0CNXLAg-56" value="NIT" style="ellipse;whiteSpace=wrap;html=1;align=center;" parent="1" vertex="1">
          <mxGeometry x="254" y="660" width="100" height="40" as="geometry" />
        </mxCell>
        <mxCell id="ZJ7O9cxaeD2Jd0CNXLAg-57" value="RUES" style="ellipse;whiteSpace=wrap;html=1;align=center;" parent="1" vertex="1">
          <mxGeometry x="254" y="720" width="100" height="40" as="geometry" />
        </mxCell>
        <mxCell id="ZJ7O9cxaeD2Jd0CNXLAg-63" value="Calle" style="ellipse;whiteSpace=wrap;html=1;align=center;dashed=1;" parent="1" vertex="1">
          <mxGeometry x="234" y="920" width="100" height="40" as="geometry" />
        </mxCell>
        <mxCell id="ZJ7O9cxaeD2Jd0CNXLAg-65" value="Barrio" style="ellipse;whiteSpace=wrap;html=1;align=center;dashed=1;" parent="1" vertex="1">
          <mxGeometry x="234" y="970" width="100" height="40" as="geometry" />
        </mxCell>
        <mxCell id="ZJ7O9cxaeD2Jd0CNXLAg-67" value="Ciudad" style="ellipse;whiteSpace=wrap;html=1;align=center;dashed=1;" parent="1" vertex="1">
          <mxGeometry x="234" y="1020" width="100" height="40" as="geometry" />
        </mxCell>
        <mxCell id="ZJ7O9cxaeD2Jd0CNXLAg-69" value="Estado" style="ellipse;whiteSpace=wrap;html=1;align=center;dashed=1;" parent="1" vertex="1">
          <mxGeometry x="234" y="1070" width="100" height="40" as="geometry" />
        </mxCell>
        <mxCell id="ZJ7O9cxaeD2Jd0CNXLAg-71" value="Fecha" style="ellipse;whiteSpace=wrap;html=1;align=center;" parent="1" vertex="1">
          <mxGeometry x="474" y="110" width="100" height="40" as="geometry" />
        </mxCell>
        <mxCell id="ZJ7O9cxaeD2Jd0CNXLAg-72" value="Valor" style="ellipse;whiteSpace=wrap;html=1;align=center;" parent="1" vertex="1">
          <mxGeometry x="474" y="170" width="100" height="40" as="geometry" />
        </mxCell>
        <mxCell id="ZJ7O9cxaeD2Jd0CNXLAg-75" value="Cantidad" style="ellipse;whiteSpace=wrap;html=1;align=center;" parent="1" vertex="1">
          <mxGeometry x="670" y="405" width="100" height="40" as="geometry" />
        </mxCell>
        <mxCell id="ZJ7O9cxaeD2Jd0CNXLAg-90" value="Titulo" style="ellipse;whiteSpace=wrap;html=1;align=center;" parent="1" vertex="1">
          <mxGeometry x="530" y="390" width="100" height="40" as="geometry" />
        </mxCell>
        <mxCell id="ZJ7O9cxaeD2Jd0CNXLAg-92" value="Categoria" style="ellipse;whiteSpace=wrap;html=1;align=center;" parent="1" vertex="1">
          <mxGeometry x="530" y="440" width="100" height="40" as="geometry" />
        </mxCell>
        <mxCell id="ZJ7O9cxaeD2Jd0CNXLAg-94" value="ISBN" style="ellipse;whiteSpace=wrap;html=1;align=center;" parent="1" vertex="1">
          <mxGeometry x="530" y="490" width="100" height="40" as="geometry" />
        </mxCell>
        <mxCell id="ZJ7O9cxaeD2Jd0CNXLAg-96" value="AÃ±o_PublicaciÃ³n" style="ellipse;whiteSpace=wrap;html=1;align=center;" parent="1" vertex="1">
          <mxGeometry x="530" y="540" width="100" height="40" as="geometry" />
        </mxCell>
        <mxCell id="ZJ7O9cxaeD2Jd0CNXLAg-98" value="Editorial" style="ellipse;whiteSpace=wrap;html=1;align=center;" parent="1" vertex="1">
          <mxGeometry x="530" y="590" width="100" height="40" as="geometry" />
        </mxCell>
        <mxCell id="ZJ7O9cxaeD2Jd0CNXLAg-99" value="Valor" style="ellipse;whiteSpace=wrap;html=1;align=center;" parent="1" vertex="1">
          <mxGeometry x="530" y="640" width="100" height="40" as="geometry" />
        </mxCell>
        <mxCell id="ZJ7O9cxaeD2Jd0CNXLAg-100" value="Autor/a" style="ellipse;whiteSpace=wrap;html=1;align=center;" parent="1" vertex="1">
          <mxGeometry x="530" y="690" width="100" height="40" as="geometry" />
        </mxCell>
        <mxCell id="ZJ7O9cxaeD2Jd0CNXLAg-112" style="edgeStyle=orthogonalEdgeStyle;rounded=0;orthogonalLoop=1;jettySize=auto;html=1;entryX=0;entryY=0.5;entryDx=0;entryDy=0;" parent="1" source="ZJ7O9cxaeD2Jd0CNXLAg-104" target="ZJ7O9cxaeD2Jd0CNXLAg-107" edge="1">
          <mxGeometry relative="1" as="geometry" />
        </mxCell>
        <mxCell id="ZJ7O9cxaeD2Jd0CNXLAg-113" style="edgeStyle=orthogonalEdgeStyle;rounded=0;orthogonalLoop=1;jettySize=auto;html=1;entryX=0;entryY=0.5;entryDx=0;entryDy=0;" parent="1" source="ZJ7O9cxaeD2Jd0CNXLAg-104" target="ZJ7O9cxaeD2Jd0CNXLAg-108" edge="1">
          <mxGeometry relative="1" as="geometry" />
        </mxCell>
        <mxCell id="ZJ7O9cxaeD2Jd0CNXLAg-104" value="Telefono" style="ellipse;whiteSpace=wrap;html=1;align=center;" parent="1" vertex="1">
          <mxGeometry x="424" y="940" width="100" height="40" as="geometry" />
        </mxCell>
        <mxCell id="ZJ7O9cxaeD2Jd0CNXLAg-105" value="Nombre_Contacto" style="ellipse;whiteSpace=wrap;html=1;align=center;" parent="1" vertex="1">
          <mxGeometry x="424" y="990" width="100" height="40" as="geometry" />
        </mxCell>
        <mxCell id="ZJ7O9cxaeD2Jd0CNXLAg-106" value="Email" style="ellipse;whiteSpace=wrap;html=1;align=center;" parent="1" vertex="1">
          <mxGeometry x="424" y="1040" width="100" height="40" as="geometry" />
        </mxCell>
        <mxCell id="ZJ7O9cxaeD2Jd0CNXLAg-107" value="Telefono_1" style="ellipse;whiteSpace=wrap;html=1;align=center;dashed=1;" parent="1" vertex="1">
          <mxGeometry x="564" y="940" width="100" height="40" as="geometry" />
        </mxCell>
        <mxCell id="ZJ7O9cxaeD2Jd0CNXLAg-108" value="Telefono_2" style="ellipse;whiteSpace=wrap;html=1;align=center;dashed=1;" parent="1" vertex="1">
          <mxGeometry x="564" y="990" width="100" height="40" as="geometry" />
        </mxCell>
        <mxCell id="qr7E9T7kQJSVh2GNNmqL-1" value="Codigo_Cliente" style="ellipse;whiteSpace=wrap;html=1;align=center;fontStyle=4;" parent="1" vertex="1">
          <mxGeometry x="144" y="320" width="100" height="40" as="geometry" />
        </mxCell>
        <mxCell id="qr7E9T7kQJSVh2GNNmqL-3" value="Codigo_Editorial" style="ellipse;whiteSpace=wrap;html=1;align=center;fontStyle=4;" parent="1" vertex="1">
          <mxGeometry x="424" y="890" width="100" height="40" as="geometry" />
        </mxCell>
        <mxCell id="qr7E9T7kQJSVh2GNNmqL-5" value="Codigo_Cliente" style="ellipse;whiteSpace=wrap;html=1;align=center;fontStyle=4;" parent="1" vertex="1">
          <mxGeometry x="474" y="60" width="100" height="40" as="geometry" />
        </mxCell>
        <mxCell id="qr7E9T7kQJSVh2GNNmqL-9" value="Codigo_Editorial" style="ellipse;whiteSpace=wrap;html=1;align=center;fontStyle=4;" parent="1" vertex="1">
          <mxGeometry x="530" y="740" width="100" height="40" as="geometry" />
        </mxCell>
        <mxCell id="qr7E9T7kQJSVh2GNNmqL-11" value="Codigo_Editorial" style="ellipse;whiteSpace=wrap;html=1;align=center;fontStyle=4;" parent="1" vertex="1">
          <mxGeometry x="670" y="510" width="100" height="40" as="geometry" />
        </mxCell>
        <mxCell id="qr7E9T7kQJSVh2GNNmqL-17" value="Codigo_Editorial" style="ellipse;whiteSpace=wrap;html=1;align=center;fontStyle=4;" parent="1" vertex="1">
          <mxGeometry x="474" y="10" width="100" height="40" as="geometry" />
        </mxCell>
        <mxCell id="qr7E9T7kQJSVh2GNNmqL-19" value="Cantidad" style="ellipse;whiteSpace=wrap;html=1;align=center;" parent="1" vertex="1">
          <mxGeometry x="690" y="272.5" width="100" height="40" as="geometry" />
        </mxCell>
        <mxCell id="qr7E9T7kQJSVh2GNNmqL-20" value="Valor" style="ellipse;whiteSpace=wrap;html=1;align=center;" parent="1" vertex="1">
          <mxGeometry x="690" y="227.5" width="100" height="40" as="geometry" />
        </mxCell>
        <mxCell id="qr7E9T7kQJSVh2GNNmqL-27" value="Codigo_Libro" style="ellipse;whiteSpace=wrap;html=1;align=center;fontStyle=4;" parent="1" vertex="1">
          <mxGeometry x="530" y="790" width="100" height="40" as="geometry" />
        </mxCell>
        <mxCell id="qr7E9T7kQJSVh2GNNmqL-29" value="Codigo_Libro" style="ellipse;whiteSpace=wrap;html=1;align=center;fontStyle=4;" parent="1" vertex="1">
          <mxGeometry x="670" y="460" width="100" height="40" as="geometry" />
        </mxCell>
        <mxCell id="qr7E9T7kQJSVh2GNNmqL-35" value="Codigo_Editorial" style="ellipse;whiteSpace=wrap;html=1;align=center;fontStyle=4;" parent="1" vertex="1">
          <mxGeometry x="690" y="177.5" width="100" height="40" as="geometry" />
        </mxCell>
        <mxCell id="qr7E9T7kQJSVh2GNNmqL-36" value="Codigo_Libro" style="ellipse;whiteSpace=wrap;html=1;align=center;fontStyle=4;" parent="1" vertex="1">
          <mxGeometry x="690" y="127.5" width="100" height="40" as="geometry" />
        </mxCell>
      </root>
    </mxGraphModel>
  </diagram>
</mxfile>
